<svg width="36" height="28" viewBox="0 0 36 28" fill="none" xmlns="http://www.w3.org/2000/svg">
<g clip-path="url(#clip0_65417_984)">
<path d="M8.18184 27.0071V13.0979L3.86817 9.1515L0 6.96155V24.5525C0 25.9106 1.10039 27.0071 2.45461 27.0071H8.18184Z" fill="#4285F4"/>
<path d="M27.8181 27.0071H33.5454C34.9037 27.0071 36 25.9065 36 24.5525V6.96167L31.6187 9.47L27.8181 13.0978V27.0071Z" fill="#34A853"/>
<path d="M8.18184 13.0979L7.59487 7.66313L8.18184 2.46155L18 9.82524L27.8182 2.46155L28.4747 7.3823L27.8182 13.0979L18 20.4615L8.18184 13.0979Z" fill="#EA4335"/>
<path d="M27.8181 2.46146V13.0978L36 6.96146V3.68869C36 0.6533 32.535 -1.07709 30.1092 0.7433L27.8181 2.46146Z" fill="#FBBC04"/>
<path d="M0 6.96152L3.76298 9.78386L8.18184 13.0978V2.46152L5.89078 0.743365C3.46078 -1.07717 0 0.653365 0 3.68861V6.96138V6.96152Z" fill="#C5221F"/>
</g>
<defs>
<clipPath id="clip0_65417_984">
<rect width="36" height="27.1406" fill="white"/>
</clipPath>
</defs>
</svg>
