<svg width="36" height="37" viewBox="0 0 36 37" fill="none" xmlns="http://www.w3.org/2000/svg">
<g clip-path="url(#clip0_65417_980)">
<path d="M0.768234 17.9235C0.76739 20.9719 1.56389 23.9483 3.07842 26.5718L0.62339 35.5356L9.79664 33.1303C12.3338 34.5115 15.1766 35.2353 18.0654 35.2355H18.073C27.6095 35.2355 35.3724 27.4753 35.3765 17.9372C35.3783 13.3153 33.58 8.9691 30.3127 5.69929C27.046 2.42975 22.7014 0.628208 18.0723 0.626099C8.53467 0.626099 0.772312 8.38579 0.768375 17.9235" fill="url(#paint0_linear_65417_980)"/>
<path d="M0.150469 17.9179C0.149484 21.0759 0.974531 24.1588 2.54306 26.8763L0 36.1613L9.50217 33.6698C12.1203 35.0973 15.0681 35.85 18.0676 35.8511H18.0754C27.954 35.8511 35.9958 27.8118 36 17.9322C36.0017 13.1442 34.1387 8.64183 30.7547 5.25488C27.3703 1.86834 22.8703 0.00196875 18.0754 0C8.19506 0 0.154406 8.03813 0.150469 17.9179ZM5.80922 26.4083L5.45442 25.8451C3.96295 23.4736 3.17573 20.7331 3.17686 17.919C3.18009 9.70721 9.86316 3.02625 18.081 3.02625C22.0607 3.02794 25.8007 4.57931 28.6138 7.39406C31.4267 10.2091 32.9746 13.9511 32.9736 17.9311C32.97 26.1429 26.2867 32.8247 18.0754 32.8247H18.0695C15.3958 32.8233 12.7735 32.1053 10.4867 30.7484L9.94247 30.4256L4.30369 31.904L5.80922 26.4081V26.4083Z" fill="url(#paint1_linear_65417_980)"/>
<path d="M13.5953 10.4271C13.2598 9.68137 12.9067 9.66632 12.5876 9.65324C12.3263 9.64199 12.0277 9.64284 11.7293 9.64284C11.4306 9.64284 10.9453 9.7552 10.5351 10.2031C10.1244 10.6514 8.96738 11.7348 8.96738 13.9382C8.96738 16.1418 10.5723 18.2713 10.7961 18.5704C11.0201 18.869 13.8945 23.5355 18.4468 25.3307C22.2301 26.8226 23.0001 26.5259 23.8212 26.451C24.6424 26.3765 26.4711 25.3679 26.8442 24.3221C27.2175 23.2764 27.2176 22.3801 27.1056 22.1928C26.9937 22.0062 26.695 21.8941 26.2471 21.6702C25.7991 21.4462 23.5972 20.3627 23.1867 20.2132C22.776 20.0639 22.4775 19.9893 22.1788 20.4378C21.8801 20.8855 21.0225 21.8941 20.761 22.1928C20.4999 22.4922 20.2385 22.5294 19.7907 22.3054C19.3425 22.0807 17.9002 21.6083 16.1889 20.0827C14.8575 18.8955 13.9586 17.4295 13.6973 16.9811C13.436 16.5333 13.6693 16.2906 13.8939 16.0674C14.0951 15.8668 14.3419 15.5444 14.5661 15.283C14.7894 15.0215 14.8639 14.8349 15.0133 14.5362C15.1628 14.2372 15.0879 13.9756 14.9761 13.7516C14.8639 13.5276 13.9936 11.3126 13.5953 10.4271Z" fill="white"/>
</g>
<defs>
<linearGradient id="paint0_linear_65417_980" x1="1738.28" y1="3491.57" x2="1738.28" y2="0.626099" gradientUnits="userSpaceOnUse">
<stop stop-color="#1FAF38"/>
<stop offset="1" stop-color="#60D669"/>
</linearGradient>
<linearGradient id="paint1_linear_65417_980" x1="1800" y1="3616.13" x2="1800" y2="0" gradientUnits="userSpaceOnUse">
<stop stop-color="#F9F9F9"/>
<stop offset="1" stop-color="white"/>
</linearGradient>
<clipPath id="clip0_65417_980">
<rect width="36" height="36.2812" fill="white"/>
</clipPath>
</defs>
</svg>
